<svg width="176" height="52" xmlns="http://www.w3.org/2000/svg">

 <g>
  <title>background</title>
  <rect fill="none" id="canvas_background" height="402" width="582" y="-1" x="-1"/>
 </g>
 <g>
  <title>Layer 1</title>
  <path stroke="#000000" id="svg_1" fill="#000000" d="m47.271487,22.971078l2.64536,-1.3088l4.1813,-6.2819l1.28,-0.5234l1.3654,6.3691l-1.792,0.2617l-1.3654,-2.6174l-1.024,4.1007l4.5227,0l4.6933,1.2214l1.8774,-1.2214l3.1573,3.3154l1.3653,-6.1074l2.2187,2.2685l1.3653,-1.9195l2.2187,-0.6107l3.2427,-3.0537l0.512,-1.4833l2.6453,0.4363l1.1094,1.4832l-1.9627,4.1879l4.864,-2.5302l0,-1.2215l1.8773,-0.4362l2.048,2.094l2.048,-2.5302l0,-1.745l3.328,-2.3557l1.3654,-2.0067l2.1333,0l3.7547,-7.76512l3.2427,-3.40268l1.1946,1.91946l-1.8773,2.44296l0.6827,1.57047l1.792,0.34899l1.4506,6.45642l0,5.4093l2.56,3.5772l1.28,4.9732l-4.4373,-2.8792l-1.9627,-8.2886l-1.1947,0.2617l-0.1706,5.5839l-3.2427,5.3222l-0.9387,8.1141l2.2187,0.5235l0.9387,-1.1343l2.1333,2.443l1.6213,7.3289l-0.1706,4.7114l-2.048,0l-0.768,-6.6309l-1.4507,2.0067l-3.1573,-0.698l-2.56,-2.1812l-2.9014,1.047l0.1707,4.7114l-2.304,0.6107l-3.4133,2.6175l-4.096,-0.5235l-1.6214,-0.9597l-2.56,0.4362l0.8534,1.047l-2.048,1.2215l-1.6214,-0.7853l-3.072,1.396l-4.6933,-2.3557l-1.792,-4.1879l-1.536,0.1745l-1.792,-1.4832l-0.0854,-1.1343l-5.7173,-0.6107l-0.9387,3.1409l-3.584,-1.6577l-1.792,-3.0537l-3.83999,0l-0.42667,4.8859l-2.21867,0.698l-1.10933,4.4497l-0.85334,-0.7853l-3.584,-9.3355l4.26667,-2.094l-0.68267,-4.1007l-0.68266,-4.1879l1.87733,-2.7047l-0.59733,-1.6577l2.56,-2.7919l1.024,0.1745zm56.74676,10.2953l3.9253,5.9328l1.28,-0.5235l-1.6213,-2.4429l-3.584,-3.8389l0,0.8725zm-40.1067,-12.0403l0,-1.745l2.9866,-2.1812l2.56,-1.3087l-2.9866,0l-2.6454,1.5705l-1.6213,1.4832l0,2.1812l1.7067,0z"/>
 </g>
</svg>